# xmcd
#
# Track frame offsets: 
#        150
#        17335
#        37630
#        71785
#        85158
#        112058
#        139885
#        172358
#        193320
#
# Disc length: 2834 seconds
#
# Revision: 2
# Processed by: cddbd v1.5.2PL0 Copyright (c) Steve Scherf et al.
# Submitted via: ExactAudioCopy v0.99pb4
#
DISCID=7d0b1009
DTITLE=Albert King - Crosscut Saw: Albert King In San Francisco
DYEAR=1983
DGENRE=Blues
TTITLE0=Honey Bee
TTITLE1=Ask Me No Questions
TTITLE2=I'm Gonna Move To The Outskirts Of Town
TTITLE3=They Made The Queen Welcome
TTITLE4=Floodin' In California
TTITLE5=I Found Love In The Food Stamp Line
TTITLE6=Match Box Blues
TTITLE7=Crosscut Saw
TTITLE8=Why You So Mean To Me
EXTD=© 1992\nLabel: Fantasy Inc. - Stax Records\nSCD-8571-2\nDigitally
EXTD=remastered by Phil De Lancie (Fantasy Studios, Berkeley 1991)
EXTT0=
EXTT1=
EXTT2=
EXTT3=
EXTT4=
EXTT5=
EXTT6=
EXTT7=
EXTT8=
PLAYORDER=
